<svg xmlns="http://www.w3.org/2000/svg" width="1200" height="350" viewBox="0 0 1200 350"><defs><pattern id="grain" width="6" height="6" patternUnits="userSpaceOnUse"><path d="M0 1h2M4 5h1" stroke="#fff" opacity=".045"/></pattern><linearGradient id="metal" x2="0" y2="1"><stop stop-color="#292624"/><stop offset=".45" stop-color="#151414"/><stop offset="1" stop-color="#0c0c0c"/></linearGradient></defs><style>text{font-family:'Courier New',monospace} .spin{transform-box:fill-box;transform-origin:center;animation:roll 12s linear infinite}.meter{transform-box:fill-box;transform-origin:bottom;animation:level 1.7s ease-in-out infinite alternate}@keyframes roll{to{transform:rotate(360deg)}}@keyframes level{0%{transform:scaleY(.35)}35%{transform:scaleY(.85)}65%{transform:scaleY(.5)}100%{transform:scaleY(1)}}@media(prefers-reduced-motion:reduce){.spin,.meter{animation:none}}</style><rect x="1" y="1" width="1198" height="348" rx="7" fill="#111" stroke="#5d4035"/><rect x="27" y="25" width="1146" height="242" rx="13" fill="url(#metal)" stroke="#645447"/><rect x="45" y="41" width="1110" height="73" rx="3" fill="#d82e23"/><text x="67" y="70" font-size="13" fill="#271310" letter-spacing="3">MellRC / PERSONAL COLLECTION</text><text x="65" y="99" font-size="27" font-weight="bold" fill="#100c0b">cursor-cn</text><text x="1060" y="94" font-size="44" fill="#14100e" font-weight="bold">01</text><rect x="323" y="131" width="554" height="115" rx="57" fill="#070707" stroke="#6c5546"/><path d="M395 189h410" stroke="#644334" stroke-width="5"/><g transform="translate(395 189)"><circle r="47" fill="#090909" stroke="#74695d" stroke-width="2"/><circle r="41" fill="none" stroke="#352b28" stroke-width="6"/><g class=""><circle r="36" fill="#282524" stroke="#b6a899"/><path d="M-3 -35h6l2 23h-10Z" fill="#111" transform="rotate(0)"/><path d="M-3 -35h6l2 23h-10Z" fill="#111" transform="rotate(60)"/><path d="M-3 -35h6l2 23h-10Z" fill="#111" transform="rotate(120)"/><path d="M-3 -35h6l2 23h-10Z" fill="#111" transform="rotate(180)"/><path d="M-3 -35h6l2 23h-10Z" fill="#111" transform="rotate(240)"/><path d="M-3 -35h6l2 23h-10Z" fill="#111" transform="rotate(300)"/><circle r="5" fill="#0b0b0b" stroke="#dd3529"/></g></g><g transform="translate(805 189)"><circle r="47" fill="#090909" stroke="#74695d" stroke-width="2"/><circle r="41" fill="none" stroke="#352b28" stroke-width="6"/><g class=""><circle r="36" fill="#282524" stroke="#b6a899"/><path d="M-3 -35h6l2 23h-10Z" fill="#111" transform="rotate(0)"/><path d="M-3 -35h6l2 23h-10Z" fill="#111" transform="rotate(60)"/><path d="M-3 -35h6l2 23h-10Z" fill="#111" transform="rotate(120)"/><path d="M-3 -35h6l2 23h-10Z" fill="#111" transform="rotate(180)"/><path d="M-3 -35h6l2 23h-10Z" fill="#111" transform="rotate(240)"/><path d="M-3 -35h6l2 23h-10Z" fill="#111" transform="rotate(300)"/><circle r="5" fill="#0b0b0b" stroke="#dd3529"/></g></g><text x="551" y="182" fill="#b9a895" font-size="14" letter-spacing="4">STEREO</text><text x="553" y="208" fill="#c53025" font-size="12">TYPE I / C60</text><text x="64" y="174" fill="#e0d2bf" font-size="17">SIDE A</text><text x="64" y="204" fill="#8c7d6a" font-size="12">HIGH OUTPUT</text><text x="969" y="177" fill="#d8c9b5" font-size="30" font-weight="bold">60</text><text x="969" y="203" fill="#8c7d6a" font-size="12">MIN / ARCHIVE</text><text x="34" y="310" fill="#b6a58f" font-size="18">CURSOR CHINESE LOCALIZATION</text><text x="955" y="310" fill="#ed4936" font-size="16" font-weight="bold">OPEN PROJECT ↗</text><rect width="1200" height="350" fill="url(#grain)"/><circle cx="14" cy="14" r="5" fill="#171717" stroke="#514944"/><path d="M12 16l4 -4" stroke="#a89a89"/><circle cx="1186" cy="14" r="5" fill="#171717" stroke="#514944"/><path d="M1184 16l4 -4" stroke="#a89a89"/><circle cx="14" cy="336" r="5" fill="#171717" stroke="#514944"/><path d="M12 338l4 -4" stroke="#a89a89"/><circle cx="1186" cy="336" r="5" fill="#171717" stroke="#514944"/><path d="M1184 338l4 -4" stroke="#a89a89"/></svg>
